<svg width="34" height="20" viewBox="0 0 34 20" fill="none" xmlns="http://www.w3.org/2000/svg">
<path d="M9.7564 7.48259C9.747 7.79625 9.78851 8.10936 9.87931 8.40975C9.9687 8.6689 10.0804 8.91913 10.2145 9.15818C10.2621 9.22746 10.2893 9.30877 10.2927 9.39276C10.2869 9.45723 10.2655 9.51933 10.2305 9.57378C10.1955 9.62823 10.1478 9.67343 10.0916 9.70553L9.43236 10.1412C9.35396 10.1972 9.26052 10.2283 9.16419 10.2306C9.10478 10.2296 9.04624 10.2162 8.99234 10.1911C8.93845 10.1661 8.89041 10.1301 8.85133 10.0853C8.70661 9.94038 8.57913 9.7792 8.47142 9.605C8.37085 9.42627 8.27029 9.2252 8.15855 8.99062C7.79204 9.44842 7.32558 9.81629 6.79491 10.0661C6.26424 10.3158 5.68342 10.4409 5.09695 10.4316C4.71808 10.4521 4.33894 10.3964 3.98197 10.2679C3.62499 10.1393 3.29743 9.9405 3.01864 9.68319C2.75926 9.42148 2.55764 9.10833 2.42677 8.76393C2.2959 8.41952 2.23869 8.05152 2.25882 7.68366C2.24528 7.2788 2.32255 6.87605 2.48496 6.50493C2.64737 6.13381 2.8908 5.80373 3.19742 5.5389C3.9256 4.97144 4.83421 4.68584 5.7562 4.73462C6.13008 4.73296 6.50357 4.7591 6.87358 4.81282C7.26466 4.86867 7.65574 4.94686 8.06916 5.03623V4.27663C8.12885 3.67894 7.95241 3.0816 7.57752 2.61221C7.09442 2.23934 6.486 2.06728 5.87911 2.13188C5.50275 2.13365 5.12784 2.17863 4.76174 2.26592C4.38068 2.35632 4.00713 2.47582 3.64437 2.62338L3.27563 2.75743H3.1192C2.96277 2.75743 2.89573 2.64572 2.89573 2.43348V1.91963C2.88582 1.79664 2.90897 1.67323 2.96277 1.56218C3.0459 1.46668 3.14885 1.39044 3.26446 1.33876C3.68281 1.13755 4.12094 0.980313 4.57179 0.869599C5.10099 0.733366 5.64552 0.665787 6.19198 0.668528C7.17702 0.582686 8.15631 0.887625 8.91837 1.51749C9.23132 1.86096 9.46941 2.26574 9.61752 2.70611C9.76564 3.14649 9.82054 3.61284 9.77874 4.07556L9.7564 7.48259ZM5.53273 9.06881C5.91327 9.06938 6.29112 9.00516 6.6501 8.87891C7.03244 8.74846 7.37225 8.51683 7.63339 8.20868C7.80578 8.0223 7.92871 7.79571 7.99095 7.54961C8.06315 7.25357 8.09695 6.94946 8.09151 6.64479V6.17563C7.76322 6.10743 7.43114 6.05894 7.09705 6.03041H6.11376C5.5675 5.9866 5.02285 6.13258 4.57179 6.44372C4.39747 6.59042 4.26011 6.77606 4.17082 6.98563C4.08154 7.19521 4.04282 7.42284 4.05779 7.65015C4.0394 7.85255 4.06371 8.05656 4.12915 8.24899C4.1946 8.44141 4.29971 8.61795 4.4377 8.76721C4.74833 9.00849 5.14165 9.11684 5.53273 9.06881ZM13.9019 10.1859C13.7602 10.199 13.6184 10.1636 13.4996 10.0853C13.3862 9.97246 13.3084 9.82873 13.2761 9.67202L10.8403 1.6292C10.7907 1.49258 10.7606 1.34969 10.7509 1.20472C10.7509 1.03716 10.8291 0.947793 10.9967 0.947793H12.0247C12.1663 0.934627 12.3082 0.970087 12.4269 1.04833C12.5358 1.16297 12.6094 1.30641 12.6392 1.46164L14.3935 8.40975L16.036 1.47281C16.0532 1.31591 16.1243 1.16982 16.2372 1.0595C16.3601 0.981227 16.5055 0.945873 16.6506 0.958963H17.4886C17.6373 0.945876 17.7862 0.981138 17.9132 1.0595C18.018 1.17549 18.0877 1.3188 18.1143 1.47281L19.7345 8.40975L21.5335 1.4393C21.5633 1.28407 21.637 1.14063 21.7458 1.02599C21.8646 0.947746 22.0064 0.912286 22.1481 0.925452H23.1202C23.1548 0.921964 23.1897 0.926214 23.2225 0.937892C23.2553 0.949571 23.285 0.968386 23.3096 0.992977C23.3342 1.01757 23.3531 1.04732 23.3647 1.08007C23.3764 1.11283 23.3807 1.14777 23.3772 1.18238C23.3814 1.23815 23.3814 1.29416 23.3772 1.34993C23.3772 1.34993 23.3772 1.49515 23.3101 1.60686L20.7849 9.64968C20.7551 9.80491 20.6814 9.94835 20.5726 10.063C20.4525 10.1382 20.3117 10.1734 20.1703 10.1635H19.2764C19.1295 10.1792 18.982 10.1393 18.863 10.0518C18.7523 9.93994 18.6816 9.79466 18.6619 9.63851L17.0417 2.93616L15.4327 9.63851C15.4129 9.79466 15.3422 9.93994 15.2315 10.0518C15.1116 10.1374 14.9648 10.1771 14.8181 10.1635L13.9019 10.1859ZM27.3103 10.454C26.7689 10.4565 26.229 10.3966 25.7013 10.2752C25.286 10.1919 24.8838 10.0529 24.5057 9.86192C24.3721 9.79823 24.2596 9.6974 24.1817 9.57149C24.1383 9.47681 24.1154 9.37402 24.1146 9.26988V8.74486C24.1146 8.53262 24.1929 8.42092 24.3493 8.42092C24.4159 8.41027 24.4838 8.41027 24.5504 8.42092L24.8074 8.53262C25.165 8.69236 25.5404 8.81189 25.9248 8.89008C26.3326 8.97945 26.7483 9.02413 27.1651 9.02413C27.6944 9.05706 28.222 8.93683 28.6847 8.67784C28.8527 8.57567 28.9908 8.43097 29.085 8.25837C29.1791 8.08577 29.2261 7.89137 29.221 7.69483C29.2263 7.56117 29.2043 7.42783 29.1563 7.30298C29.1082 7.17813 29.0352 7.0644 28.9417 6.96874C28.6392 6.70667 28.2795 6.5192 27.8914 6.42138L26.3829 5.94105C25.7303 5.77704 25.1471 5.40919 24.718 4.89101C24.3806 4.45613 24.196 3.92217 24.1929 3.37181C24.1867 2.98145 24.2831 2.59631 24.4722 2.25475C24.6588 1.91963 24.9136 1.62585 25.2208 1.39462C25.5567 1.148 25.9357 0.966167 26.3382 0.858428C26.7667 0.735023 27.2109 0.674812 27.6567 0.679699C27.8874 0.663413 28.1189 0.663413 28.3495 0.679699L29.0311 0.791404L29.6233 0.958963L30.0591 1.13769C30.1764 1.20695 30.2825 1.29408 30.3719 1.39462C30.4342 1.49914 30.4652 1.61931 30.4613 1.7409V2.23241C30.4613 2.45582 30.3831 2.56753 30.2267 2.56753C30.0847 2.55128 29.9477 2.50562 29.8244 2.43348C29.1902 2.15793 28.5046 2.02084 27.8132 2.03134C27.3341 2.00811 26.857 2.10811 26.4276 2.32178C26.2682 2.41882 26.1382 2.55743 26.0515 2.72274C25.9649 2.88805 25.925 3.07381 25.936 3.2601C25.936 3.53825 26.0477 3.80523 26.2488 3.99736C26.5785 4.26099 26.9584 4.45536 27.3662 4.56706L28.8411 5.03623C29.4664 5.20206 30.0271 5.55241 30.4501 6.04158C30.7705 6.4614 30.9398 6.97699 30.9306 7.50493C30.9373 7.92255 30.8454 8.33585 30.6625 8.71135C30.483 9.07102 30.223 9.38447 29.9026 9.62734C29.5711 9.89377 29.1919 10.0947 28.7853 10.2194C28.2975 10.3762 27.7891 10.459 27.2768 10.4651L27.3103 10.454Z" fill="white"/>
<path fill-rule="evenodd" clip-rule="evenodd" d="M29.2428 15.5911C25.503 18.1318 21.0822 19.4829 16.5606 19.4673C10.8437 19.4982 5.32111 17.3949 1.07382 13.5692C0.749783 13.2788 1.07382 12.8766 1.43138 13.1C6.14542 15.8002 11.4852 17.2176 16.9182 17.2108C20.9794 17.1943 24.9973 16.3743 28.74 14.798C29.321 14.5522 29.8127 15.1778 29.2428 15.5911Z" fill="#F8991D"/>
<path fill-rule="evenodd" clip-rule="evenodd" d="M30.6729 13.9957C30.226 13.4259 27.768 13.7276 26.662 13.8616C26.3268 13.8616 26.2821 13.6047 26.5838 13.3924C28.5389 12.0182 31.7566 12.4092 32.17 12.8785C32.5833 13.3477 32.0694 16.5654 30.226 18.1072C29.9467 18.3418 29.6785 18.2077 29.8014 17.906C30.1813 16.8447 31.1086 14.532 30.6729 13.9957Z" fill="#F8991D"/>
</svg>